<?xml version="1.0" encoding="UTF-8" standalone="no"?>
<!-- Created with Inkscape (http://www.inkscape.org/) -->

<svg
   xmlns:dc="http://purl.org/dc/elements/1.1/"
   xmlns:cc="http://creativecommons.org/ns#"
   xmlns:rdf="http://www.w3.org/1999/02/22-rdf-syntax-ns#"
   xmlns:svg="http://www.w3.org/2000/svg"
   xmlns="http://www.w3.org/2000/svg"
   xmlns:sodipodi="http://sodipodi.sourceforge.net/DTD/sodipodi-0.dtd"
   xmlns:inkscape="http://www.inkscape.org/namespaces/inkscape"
   id="svg2"
   version="1.1"
   inkscape:version="0.47 r22583"
   width="639.71375"
   height="606.13373"
   xml:space="preserve"
   sodipodi:docname="plotSushiDatasetSTvsMT.svg"><metadata
     id="metadata8"><rdf:RDF><cc:Work
         rdf:about=""><dc:format>image/svg+xml</dc:format><dc:type
           rdf:resource="http://purl.org/dc/dcmitype/StillImage" /><dc:title></dc:title></cc:Work></rdf:RDF></metadata><defs
     id="defs6"><inkscape:perspective
       sodipodi:type="inkscape:persp3d"
       inkscape:vp_x="0 : 0.5 : 1"
       inkscape:vp_y="0 : 1000 : 0"
       inkscape:vp_z="1 : 0.5 : 1"
       inkscape:persp3d-origin="0.5 : 0.33333333 : 1"
       id="perspective10" /><clipPath
       clipPathUnits="userSpaceOnUse"
       id="clipPath20"><path
         d="m 76.75,95.47 423.94,0 0,367.78 -423.94,0 0,-367.78 z"
         id="path22" /></clipPath><clipPath
       clipPathUnits="userSpaceOnUse"
       id="clipPath136"><path
         d="m 76.75,95.47 423.94,0 0,367.78 -423.94,0 0,-367.78 z"
         id="path138" /></clipPath></defs><sodipodi:namedview
     pagecolor="#ffffff"
     bordercolor="#666666"
     borderopacity="1"
     objecttolerance="10"
     gridtolerance="10"
     guidetolerance="10"
     inkscape:pageopacity="0"
     inkscape:pageshadow="2"
     inkscape:window-width="1360"
     inkscape:window-height="693"
     id="namedview4"
     showgrid="false"
     inkscape:zoom="0.69925926"
     inkscape:cx="450.43415"
     inkscape:cy="182.71259"
     inkscape:window-x="0"
     inkscape:window-y="25"
     inkscape:window-maximized="1"
     inkscape:current-layer="g12" /><g
     id="g12"
     inkscape:groupmode="layer"
     inkscape:label="plotSushiDatasetSTvsMT"
     transform="matrix(1.25,0,0,-1.25,-6.4825,636.09875)"><g
       id="g14" /><g
       id="g16"><g
         id="g18"
         clip-path="url(#clipPath20)"><path
           d="m 92.45,425.86 39.26,-44.29 39.25,-36.2 39.25,-34.09 39.26,-28.45 39.25,-27.57 39.25,-24.72 39.26,-22.3 39.25,-18.35 39.25,-14.52 39.26,-13.89"
           style="fill:none;stroke:#000000;stroke-width:2.25;stroke-linecap:round;stroke-linejoin:round;stroke-miterlimit:10;stroke-opacity:1;stroke-dasharray:none"
           id="path24" /></g></g><path
       id="path28"
       style="fill:none;stroke:#000000;stroke-width:0.75;stroke-linecap:round;stroke-linejoin:round;stroke-miterlimit:10;stroke-opacity:1;stroke-dasharray:none"
       d="m 92.45,95.47 392.54,0" /><path
       id="path30"
       style="fill:none;stroke:#000000;stroke-width:0.75;stroke-linecap:round;stroke-linejoin:round;stroke-miterlimit:10;stroke-opacity:1;stroke-dasharray:none"
       d="m 92.45,95.47 0,-9.36" /><path
       id="path32"
       style="fill:none;stroke:#000000;stroke-width:0.75;stroke-linecap:round;stroke-linejoin:round;stroke-miterlimit:10;stroke-opacity:1;stroke-dasharray:none"
       d="m 170.96,95.47 0,-9.36" /><path
       id="path34"
       style="fill:none;stroke:#000000;stroke-width:0.75;stroke-linecap:round;stroke-linejoin:round;stroke-miterlimit:10;stroke-opacity:1;stroke-dasharray:none"
       d="m 249.47,95.47 0,-9.36" /><path
       id="path36"
       style="fill:none;stroke:#000000;stroke-width:0.75;stroke-linecap:round;stroke-linejoin:round;stroke-miterlimit:10;stroke-opacity:1;stroke-dasharray:none"
       d="m 327.97,95.47 0,-9.36" /><path
       id="path38"
       style="fill:none;stroke:#000000;stroke-width:0.75;stroke-linecap:round;stroke-linejoin:round;stroke-miterlimit:10;stroke-opacity:1;stroke-dasharray:none"
       d="m 406.48,95.47 0,-9.36" /><path
       id="path40"
       style="fill:none;stroke:#000000;stroke-width:0.75;stroke-linecap:round;stroke-linejoin:round;stroke-miterlimit:10;stroke-opacity:1;stroke-dasharray:none"
       d="m 484.99,95.47 0,-9.36" /><text
       id="text42"
       transform="scale(1,-1)"
       x="88.010002"
       y="-61.779999"><tspan
         id="tspan44"
         y="-61.779999"
         x="88.010002"
         style="font-size:16px;font-variant:normal;font-weight:normal;writing-mode:lr-tb;fill:#000000;fill-opacity:1;fill-rule:nonzero;stroke:none;font-family:Helvetica;-inkscape-font-specification:Helvetica">0</tspan></text>
<text
       id="text46"
       transform="scale(1,-1)"
       x="166.50999"
       y="-61.779999"><tspan
         id="tspan48"
         y="-61.779999"
         x="166.50999"
         style="font-size:16px;font-variant:normal;font-weight:normal;writing-mode:lr-tb;fill:#000000;fill-opacity:1;fill-rule:nonzero;stroke:none;font-family:Helvetica;-inkscape-font-specification:Helvetica">2</tspan></text>
<text
       id="text50"
       transform="scale(1,-1)"
       x="245.02"
       y="-61.779999"><tspan
         id="tspan52"
         y="-61.779999"
         x="245.02"
         style="font-size:16px;font-variant:normal;font-weight:normal;writing-mode:lr-tb;fill:#000000;fill-opacity:1;fill-rule:nonzero;stroke:none;font-family:Helvetica;-inkscape-font-specification:Helvetica">4</tspan></text>
<text
       id="text54"
       transform="scale(1,-1)"
       x="323.53"
       y="-61.779999"><tspan
         id="tspan56"
         y="-61.779999"
         x="323.53"
         style="font-size:16px;font-variant:normal;font-weight:normal;writing-mode:lr-tb;fill:#000000;fill-opacity:1;fill-rule:nonzero;stroke:none;font-family:Helvetica;-inkscape-font-specification:Helvetica">6</tspan></text>
<text
       id="text58"
       transform="scale(1,-1)"
       x="402.03"
       y="-61.779999"><tspan
         id="tspan60"
         y="-61.779999"
         x="402.03"
         style="font-size:16px;font-variant:normal;font-weight:normal;writing-mode:lr-tb;fill:#000000;fill-opacity:1;fill-rule:nonzero;stroke:none;font-family:Helvetica;-inkscape-font-specification:Helvetica">8</tspan></text>
<text
       id="text62"
       transform="scale(1,-1)"
       x="476.09"
       y="-61.779999"><tspan
         id="tspan64"
         sodipodi:role="line"
         y="-61.779999"
         x="476.09 484.98599"
         style="font-size:16px;font-variant:normal;font-weight:normal;writing-mode:lr-tb;fill:#000000;fill-opacity:1;fill-rule:nonzero;stroke:none;font-family:Helvetica;-inkscape-font-specification:Helvetica">10</tspan></text>
<path
       id="path66"
       style="fill:none;stroke:#000000;stroke-width:0.75;stroke-linecap:round;stroke-linejoin:round;stroke-miterlimit:10;stroke-opacity:1;stroke-dasharray:none"
       d="m 76.75,109.09 0,340.54" /><path
       id="path68"
       style="fill:none;stroke:#000000;stroke-width:0.75;stroke-linecap:round;stroke-linejoin:round;stroke-miterlimit:10;stroke-opacity:1;stroke-dasharray:none"
       d="m 76.75,109.09 -9.36,0" /><path
       id="path70"
       style="fill:none;stroke:#000000;stroke-width:0.75;stroke-linecap:round;stroke-linejoin:round;stroke-miterlimit:10;stroke-opacity:1;stroke-dasharray:none"
       d="m 76.75,157.74 -9.36,0" /><path
       id="path72"
       style="fill:none;stroke:#000000;stroke-width:0.75;stroke-linecap:round;stroke-linejoin:round;stroke-miterlimit:10;stroke-opacity:1;stroke-dasharray:none"
       d="m 76.75,206.39 -9.36,0" /><path
       id="path74"
       style="fill:none;stroke:#000000;stroke-width:0.75;stroke-linecap:round;stroke-linejoin:round;stroke-miterlimit:10;stroke-opacity:1;stroke-dasharray:none"
       d="m 76.75,255.04 -9.36,0" /><path
       id="path76"
       style="fill:none;stroke:#000000;stroke-width:0.75;stroke-linecap:round;stroke-linejoin:round;stroke-miterlimit:10;stroke-opacity:1;stroke-dasharray:none"
       d="m 76.75,303.68 -9.36,0" /><path
       id="path78"
       style="fill:none;stroke:#000000;stroke-width:0.75;stroke-linecap:round;stroke-linejoin:round;stroke-miterlimit:10;stroke-opacity:1;stroke-dasharray:none"
       d="m 76.75,352.33 -9.36,0" /><path
       id="path80"
       style="fill:none;stroke:#000000;stroke-width:0.75;stroke-linecap:round;stroke-linejoin:round;stroke-miterlimit:10;stroke-opacity:1;stroke-dasharray:none"
       d="m 76.75,400.98 -9.36,0" /><path
       id="path82"
       style="fill:none;stroke:#000000;stroke-width:0.75;stroke-linecap:round;stroke-linejoin:round;stroke-miterlimit:10;stroke-opacity:1;stroke-dasharray:none"
       d="m 76.75,449.63 -9.36,0" /><text
       id="text84"
       transform="matrix(0,1,1,0,0,0)"
       x="93.529999"
       y="54.290001"><tspan
         id="tspan86"
         sodipodi:role="line"
         y="54.290001"
         x="93.529999 102.426 106.874 115.77"
         style="font-size:16px;font-variant:normal;font-weight:normal;writing-mode:lr-tb;fill:#000000;fill-opacity:1;fill-rule:nonzero;stroke:none;font-family:Helvetica;-inkscape-font-specification:Helvetica">0.12</tspan></text>
<text
       id="text88"
       transform="matrix(0,1,1,0,0,0)"
       x="142.17"
       y="54.290001"><tspan
         id="tspan90"
         sodipodi:role="line"
         y="54.290001"
         x="142.17 151.06599 155.51399 164.41"
         style="font-size:16px;font-variant:normal;font-weight:normal;writing-mode:lr-tb;fill:#000000;fill-opacity:1;fill-rule:nonzero;stroke:none;font-family:Helvetica;-inkscape-font-specification:Helvetica">0.14</tspan></text>
<text
       id="text92"
       transform="matrix(0,1,1,0,0,0)"
       x="190.82001"
       y="54.290001"><tspan
         id="tspan94"
         sodipodi:role="line"
         y="54.290001"
         x="190.82001 199.716 204.164 213.06"
         style="font-size:16px;font-variant:normal;font-weight:normal;writing-mode:lr-tb;fill:#000000;fill-opacity:1;fill-rule:nonzero;stroke:none;font-family:Helvetica;-inkscape-font-specification:Helvetica">0.16</tspan></text>
<text
       id="text96"
       transform="matrix(0,1,1,0,0,0)"
       x="239.47"
       y="54.290001"><tspan
         id="tspan98"
         sodipodi:role="line"
         y="54.290001"
         x="239.47 248.366 252.814 261.70999"
         style="font-size:16px;font-variant:normal;font-weight:normal;writing-mode:lr-tb;fill:#000000;fill-opacity:1;fill-rule:nonzero;stroke:none;font-family:Helvetica;-inkscape-font-specification:Helvetica">0.18</tspan></text>
<text
       id="text100"
       transform="matrix(0,1,1,0,0,0)"
       x="288.12"
       y="54.290001"><tspan
         id="tspan102"
         sodipodi:role="line"
         y="54.290001"
         x="288.12 297.01599 301.46399 310.35999"
         style="font-size:16px;font-variant:normal;font-weight:normal;writing-mode:lr-tb;fill:#000000;fill-opacity:1;fill-rule:nonzero;stroke:none;font-family:Helvetica;-inkscape-font-specification:Helvetica">0.20</tspan></text>
<text
       id="text104"
       transform="matrix(0,1,1,0,0,0)"
       x="336.76001"
       y="54.290001"><tspan
         id="tspan106"
         sodipodi:role="line"
         y="54.290001"
         x="336.76001 345.65601 350.104 359"
         style="font-size:16px;font-variant:normal;font-weight:normal;writing-mode:lr-tb;fill:#000000;fill-opacity:1;fill-rule:nonzero;stroke:none;font-family:Helvetica;-inkscape-font-specification:Helvetica">0.22</tspan></text>
<text
       id="text108"
       transform="matrix(0,1,1,0,0,0)"
       x="385.41"
       y="54.290001"><tspan
         id="tspan110"
         sodipodi:role="line"
         y="54.290001"
         x="385.41 394.306 398.754 407.64999"
         style="font-size:16px;font-variant:normal;font-weight:normal;writing-mode:lr-tb;fill:#000000;fill-opacity:1;fill-rule:nonzero;stroke:none;font-family:Helvetica;-inkscape-font-specification:Helvetica">0.24</tspan></text>
<text
       id="text112"
       transform="matrix(0,1,1,0,0,0)"
       x="434.06"
       y="54.290001"><tspan
         id="tspan114"
         sodipodi:role="line"
         y="54.290001"
         x="434.06 442.95599 447.40399 456.29999"
         style="font-size:16px;font-variant:normal;font-weight:normal;writing-mode:lr-tb;fill:#000000;fill-opacity:1;fill-rule:nonzero;stroke:none;font-family:Helvetica;-inkscape-font-specification:Helvetica">0.26</tspan></text>
<g
       id="g118"><text
         transform="matrix(1,0,0,-1,59.57,494.8)"
         id="text120"><tspan
           style="font-size:19px;font-variant:normal;font-weight:bold;writing-mode:lr-tb;fill:#000000;fill-opacity:1;fill-rule:nonzero;stroke:none;font-family:Helvetica;-inkscape-font-specification:Helvetica-Bold"
           x="0 12.673 24.282 34.846001 46.455002 51.737 57.019001 70.737 81.301003 87.627998 98.192001 108.756 119.32 125.647 130.929 136.211 148.884 154.166 165.77499 177.384 182.666 193.23 198.51199 208.601 219.16499 229.729 240.293 245.575 251.90199 264.57501 276.18399 282.51099 287.793 298.35699 308.92099 314.203 319.48499 335.31201 346.92099 352.203 358.53 363.81201 374.90799 381.23499 391.79901 402.36301 412.927 418.20901 424.53601 440.36301 451.97198"
           y="0"
           sodipodi:role="line"
           id="tspan122">Sushi Dataset. Single Task (ST) vs. Multi−task (MT)</tspan></text>
<text
         transform="matrix(1,0,0,-1,172.44,24.34)"
         id="text124"><tspan
           style="font-size:16px;font-variant:normal;font-weight:normal;writing-mode:lr-tb;fill:#000000;fill-opacity:1;fill-rule:nonzero;stroke:none;font-family:Helvetica;-inkscape-font-specification:Helvetica"
           x="0 11.552 20.448 33.776001 42.672001 51.568001 56.896 61.344002 70.239998 74.688004 79.136002 89.807999 97.807999 102.256 105.808 113.408 122.304 126.752 140.08 148.976 157.87199 165.87199 174.76801 180.09599 188.992 202.32001 211.216 220.112 224.56"
           y="0"
           sodipodi:role="line"
           id="tspan126">Number of Active Measurements</tspan></text>
<text
         transform="matrix(0,1,1,0,16.85,213.34)"
         id="text128"><tspan
           style="font-size:16px;font-variant:normal;font-weight:normal;writing-mode:lr-tb;fill:#000000;fill-opacity:1;fill-rule:nonzero;stroke:none;font-family:Helvetica;-inkscape-font-specification:Helvetica"
           x="0 10.032 17.632 26.528 31.695999 40.591999 49.487999 58.383999 62.832001 70.688004 79.584 87.584 92.031998 96.480003 107.152 112.48 117.808 126.704"
           y="0"
           sodipodi:role="line"
           id="tspan130">Average Test Error</tspan></text>
</g><g
       id="g132"><g
         id="g134"
         clip-path="url(#clipPath136)"><path
           d="m 92.45,425.86 39.26,-32.61 39.25,-29.95 39.25,-29.64 39.26,-26.92 39.25,-27.35 39.25,-24.81 39.26,-25.29 39.25,-24.51 39.25,-22.6 39.26,-22.93"
           style="fill:none;stroke:#000000;stroke-width:2.25;stroke-linecap:round;stroke-linejoin:round;stroke-miterlimit:10;stroke-opacity:1;stroke-dasharray:6.75, 11.25;stroke-dashoffset:0"
           id="path140" /><path
           d="m 92.45,425.86 39.26,-25.43 39.25,-24.19 39.25,-20.72 39.26,-20.84 39.25,-20.69 39.25,-17.01 39.26,-17.41 39.25,-15.28 39.25,-15.25 39.26,-14.06"
           style="fill:none;stroke:#000000;stroke-width:2.25;stroke-linecap:round;stroke-linejoin:round;stroke-miterlimit:10;stroke-opacity:1;stroke-dasharray:0, 9;stroke-dashoffset:0"
           id="path142" /><path
           d="m 92.45,362.2 39.26,-36.13 39.25,-32.6 39.25,-29.64 39.26,-22.09 39.25,-23.64 39.25,-6.2 39.26,-6.92 39.25,-21.4 39.25,-5.24 39.26,-36.89"
           style="fill:none;stroke:#ff0000;stroke-width:2.25;stroke-linecap:round;stroke-linejoin:round;stroke-miterlimit:10;stroke-opacity:1;stroke-dasharray:none"
           id="path144" /><path
           d="m 92.45,362.37 39.26,-28.08 39.25,-32.64 39.25,-25.84 39.26,-20.85 39.25,-24.46 39.25,-18.59 39.26,6.45 39.25,-23.3 39.25,-1.85 39.26,-39.48"
           style="fill:none;stroke:#ff0000;stroke-width:2.25;stroke-linecap:round;stroke-linejoin:round;stroke-miterlimit:10;stroke-opacity:1;stroke-dasharray:6.75, 11.25;stroke-dashoffset:0"
           id="path146" /><path
           d="m 92.45,362.37 39.26,-24.33 39.25,-21.81 39.25,-16.15 39.26,-19.63 39.25,-17.97 39.25,-14.54 39.26,-13.67 39.25,-12.61 39.25,-12.4 39.26,-12.54"
           style="fill:none;stroke:#ff0000;stroke-width:2.25;stroke-linecap:round;stroke-linejoin:round;stroke-miterlimit:10;stroke-opacity:1;stroke-dasharray:0, 9;stroke-dashoffset:0"
           id="path148" /><path
           d="m 344.6,463.25 156.09,0 0,-131.04 -156.09,0 0,131.04 z"
           style="fill:none;stroke:#000000;stroke-width:0.75;stroke-linecap:round;stroke-linejoin:round;stroke-miterlimit:10;stroke-opacity:1;stroke-dasharray:none"
           id="path150" /><path
           d="m 358.64,444.53 28.08,0"
           style="fill:none;stroke:#000000;stroke-width:2.25;stroke-linecap:round;stroke-linejoin:round;stroke-miterlimit:10;stroke-opacity:1;stroke-dasharray:none"
           id="path152" /><path
           d="m 358.64,425.81 28.08,0"
           style="fill:none;stroke:#000000;stroke-width:2.25;stroke-linecap:round;stroke-linejoin:round;stroke-miterlimit:10;stroke-opacity:1;stroke-dasharray:6.75, 11.25;stroke-dashoffset:0"
           id="path154" /><path
           d="m 358.64,407.09 28.08,0"
           style="fill:none;stroke:#000000;stroke-width:2.25;stroke-linecap:round;stroke-linejoin:round;stroke-miterlimit:10;stroke-opacity:1;stroke-dasharray:0, 9;stroke-dashoffset:0"
           id="path156" /><path
           d="m 358.64,388.37 28.08,0"
           style="fill:none;stroke:#ff0000;stroke-width:2.25;stroke-linecap:round;stroke-linejoin:round;stroke-miterlimit:10;stroke-opacity:1;stroke-dasharray:none"
           id="path158" /><path
           d="m 358.64,369.65 28.08,0"
           style="fill:none;stroke:#ff0000;stroke-width:2.25;stroke-linecap:round;stroke-linejoin:round;stroke-miterlimit:10;stroke-opacity:1;stroke-dasharray:6.75, 11.25;stroke-dashoffset:0"
           id="path160" /><path
           d="m 358.64,350.93 28.08,0"
           style="fill:none;stroke:#ff0000;stroke-width:2.25;stroke-linecap:round;stroke-linejoin:round;stroke-miterlimit:10;stroke-opacity:1;stroke-dasharray:0, 9;stroke-dashoffset:0"
           id="path162" /><text
           transform="matrix(1,0,0,-1,400.76,438.78)"
           id="text164"><tspan
             style="font-size:16px;font-variant:normal;font-weight:normal;writing-mode:lr-tb;fill:#000000;fill-opacity:1;fill-rule:nonzero;stroke:none;font-family:Helvetica;-inkscape-font-specification:Helvetica"
             x="0 10.672 20.448 29.792 40.464001 51.136002 60.032001"
             y="0"
             sodipodi:role="line"
             id="tspan166">ST−BALD</tspan></text>
<text
           transform="matrix(1,0,0,-1,400.76,420.06)"
           id="text168"><tspan
             style="font-size:16px;font-variant:normal;font-weight:normal;writing-mode:lr-tb;fill:#000000;fill-opacity:1;fill-rule:nonzero;stroke:none;font-family:Helvetica;-inkscape-font-specification:Helvetica"
             x="0 10.672 20.448 29.792 40.464001 49.360001 53.807999 59.136002 68.031998 76.447998"
             y="0"
             sodipodi:role="line"
             id="tspan170">ST−Entropy</tspan></text>
<text
           transform="matrix(1,0,0,-1,400.76,401.34)"
           id="text172"><tspan
             style="font-size:16px;font-variant:normal;font-weight:normal;writing-mode:lr-tb;fill:#000000;fill-opacity:1;fill-rule:nonzero;stroke:none;font-family:Helvetica;-inkscape-font-specification:Helvetica"
             x="0 10.672 20.448 29.792 41.344002 50.240002 59.136002 68.031998 76.928001"
             y="0"
             sodipodi:role="line"
             id="tspan174">ST−Random</tspan></text>
<text
           transform="matrix(1,0,0,-1,400.76,382.62)"
           id="text176"><tspan
             style="font-size:16px;font-variant:normal;font-weight:normal;writing-mode:lr-tb;fill:#000000;fill-opacity:1;fill-rule:nonzero;stroke:none;font-family:Helvetica;-inkscape-font-specification:Helvetica"
             x="0 13.328 23.104 32.448002 43.119999 53.792 62.688"
             y="0"
             sodipodi:role="line"
             id="tspan178">MT−BALD</tspan></text>
<text
           transform="matrix(1,0,0,-1,400.76,363.9)"
           id="text180"><tspan
             style="font-size:16px;font-variant:normal;font-weight:normal;writing-mode:lr-tb;fill:#000000;fill-opacity:1;fill-rule:nonzero;stroke:none;font-family:Helvetica;-inkscape-font-specification:Helvetica"
             x="0 13.328 23.104 32.448002 43.119999 52.015999 56.464001 61.792 70.688004 79.103996"
             y="0"
             sodipodi:role="line"
             id="tspan182">MT−Entropy</tspan></text>
<text
           transform="matrix(1,0,0,-1,400.76,345.18)"
           id="text184"><tspan
             style="font-size:16px;font-variant:normal;font-weight:normal;writing-mode:lr-tb;fill:#000000;fill-opacity:1;fill-rule:nonzero;stroke:none;font-family:Helvetica;-inkscape-font-specification:Helvetica"
             x="0 13.328 23.104 32.448002 44 52.896 61.792 70.688004 79.584"
             y="0"
             sodipodi:role="line"
             id="tspan186">MT−Random</tspan></text>
</g></g></g></svg>