<?xml version="1.0" encoding="UTF-8" standalone="no"?>
<!-- Created with Inkscape (http://www.inkscape.org/) -->

<svg
   xmlns:dc="http://purl.org/dc/elements/1.1/"
   xmlns:cc="http://creativecommons.org/ns#"
   xmlns:rdf="http://www.w3.org/1999/02/22-rdf-syntax-ns#"
   xmlns:svg="http://www.w3.org/2000/svg"
   xmlns="http://www.w3.org/2000/svg"
   xmlns:xlink="http://www.w3.org/1999/xlink"
   xmlns:sodipodi="http://sodipodi.sourceforge.net/DTD/sodipodi-0.dtd"
   xmlns:inkscape="http://www.inkscape.org/namespaces/inkscape"
   id="svg2837"
   version="1.1"
   inkscape:version="0.47 r22583"
   width="543.94171"
   height="294.9285"
   xml:space="preserve"
   sodipodi:docname="Bregman.svg"><metadata
     id="metadata2843"><rdf:RDF><cc:Work
         rdf:about=""><dc:format>image/svg+xml</dc:format><dc:type
           rdf:resource="http://purl.org/dc/dcmitype/StillImage" /><dc:title /></cc:Work></rdf:RDF></metadata><defs
     id="defs2841"><marker
       inkscape:stockid="Arrow1Lstart"
       orient="auto"
       refY="0"
       refX="0"
       id="Arrow1Lstart"
       style="overflow:visible"><path
         id="path4692"
         d="M 0,0 5,-5 -12.5,0 5,5 0,0 z"
         style="fill-rule:evenodd;stroke:#000000;stroke-width:1pt;marker-start:none"
         transform="matrix(0.8,0,0,0.8,10,0)" /></marker><marker
       inkscape:stockid="StopM"
       orient="auto"
       refY="0"
       refX="0"
       id="StopM"
       style="overflow:visible"><path
         id="path4865"
         d="M 0,5.65 0,-5.65"
         style="fill:none;stroke:#000000;stroke-width:1pt"
         transform="scale(0.4,0.4)" /></marker><marker
       inkscape:stockid="StopL"
       orient="auto"
       refY="0"
       refX="0"
       id="StopL"
       style="overflow:visible"><path
         id="path4862"
         d="M 0,5.65 0,-5.65"
         style="fill:none;stroke:#000000;stroke-width:1pt"
         transform="scale(0.8,0.8)" /></marker><inkscape:path-effect
       effect="spiro"
       id="path-effect4272"
       is_visible="true" /><linearGradient
       id="linearGradient3669"><stop
         style="stop-color:#45c817;stop-opacity:1;"
         offset="0"
         id="stop3671" /><stop
         style="stop-color:#9fffb4;stop-opacity:1;"
         offset="1"
         id="stop3673" /></linearGradient><inkscape:perspective
       sodipodi:type="inkscape:persp3d"
       inkscape:vp_x="0 : 0.5 : 1"
       inkscape:vp_y="0 : 1000 : 0"
       inkscape:vp_z="1 : 0.5 : 1"
       inkscape:persp3d-origin="0.5 : 0.33333333 : 1"
       id="perspective2845" /><clipPath
       clipPathUnits="userSpaceOnUse"
       id="clipPath2855"><path
         d="m 976,5320 0,-2616 4352,0 0,2616 -4352,0 z"
         id="path2857" /></clipPath><inkscape:perspective
       id="perspective3774"
       inkscape:persp3d-origin="0.5 : 0.33333333 : 1"
       inkscape:vp_z="1 : 0.5 : 1"
       inkscape:vp_y="0 : 1000 : 0"
       inkscape:vp_x="0 : 0.5 : 1"
       sodipodi:type="inkscape:persp3d" /><inkscape:perspective
       id="perspective3850"
       inkscape:persp3d-origin="0.5 : 0.33333333 : 1"
       inkscape:vp_z="1 : 0.5 : 1"
       inkscape:vp_y="0 : 1000 : 0"
       inkscape:vp_x="0 : 0.5 : 1"
       sodipodi:type="inkscape:persp3d" /><inkscape:perspective
       id="perspective3937"
       inkscape:persp3d-origin="0.5 : 0.33333333 : 1"
       inkscape:vp_z="1 : 0.5 : 1"
       inkscape:vp_y="0 : 1000 : 0"
       inkscape:vp_x="0 : 0.5 : 1"
       sodipodi:type="inkscape:persp3d" /><linearGradient
       inkscape:collect="always"
       xlink:href="#linearGradient3669"
       id="linearGradient3953"
       gradientUnits="userSpaceOnUse"
       x1="1016"
       y1="3528"
       x2="5320"
       y2="3528"
       gradientTransform="matrix(0.125,0,0,-0.125,24.120763,915.54025)" /><inkscape:perspective
       id="perspective4036"
       inkscape:persp3d-origin="0.5 : 0.33333333 : 1"
       inkscape:vp_z="1 : 0.5 : 1"
       inkscape:vp_y="0 : 1000 : 0"
       inkscape:vp_x="0 : 0.5 : 1"
       sodipodi:type="inkscape:persp3d" /><inkscape:perspective
       id="perspective4125"
       inkscape:persp3d-origin="0.5 : 0.33333333 : 1"
       inkscape:vp_z="1 : 0.5 : 1"
       inkscape:vp_y="0 : 1000 : 0"
       inkscape:vp_x="0 : 0.5 : 1"
       sodipodi:type="inkscape:persp3d" /><clipPath
       id="clipPath4214"
       clipPathUnits="userSpaceOnUse"><path
         id="path4216"
         d="m 0,0 3240,0 0,370 L 0,370 0,0 z" /></clipPath><inkscape:perspective
       id="perspective4204"
       inkscape:persp3d-origin="0.5 : 0.33333333 : 1"
       inkscape:vp_z="1 : 0.5 : 1"
       inkscape:vp_y="0 : 1000 : 0"
       inkscape:vp_x="0 : 0.5 : 1"
       sodipodi:type="inkscape:persp3d" /><clipPath
       id="clipPath4313"
       clipPathUnits="userSpaceOnUse"><path
         id="path4315"
         d="m 0,0 2950,0 0,430 L 0,430 0,0 z" /></clipPath><inkscape:perspective
       id="perspective4303"
       inkscape:persp3d-origin="0.5 : 0.33333333 : 1"
       inkscape:vp_z="1 : 0.5 : 1"
       inkscape:vp_y="0 : 1000 : 0"
       inkscape:vp_x="0 : 0.5 : 1"
       sodipodi:type="inkscape:persp3d" /><clipPath
       id="clipPath4408"
       clipPathUnits="userSpaceOnUse"><path
         id="path4410"
         d="M 0,0 670,0 670,370 0,370 0,0 z" /></clipPath><inkscape:perspective
       id="perspective4398"
       inkscape:persp3d-origin="0.5 : 0.33333333 : 1"
       inkscape:vp_z="1 : 0.5 : 1"
       inkscape:vp_y="0 : 1000 : 0"
       inkscape:vp_x="0 : 0.5 : 1"
       sodipodi:type="inkscape:persp3d" /><clipPath
       id="clipPath4470"
       clipPathUnits="userSpaceOnUse"><path
         id="path4472"
         d="m 0,0 1230,0 0,370 L 0,370 0,0 z" /></clipPath><inkscape:perspective
       id="perspective4460"
       inkscape:persp3d-origin="0.5 : 0.33333333 : 1"
       inkscape:vp_z="1 : 0.5 : 1"
       inkscape:vp_y="0 : 1000 : 0"
       inkscape:vp_x="0 : 0.5 : 1"
       sodipodi:type="inkscape:persp3d" /><clipPath
       id="clipPath4562"
       clipPathUnits="userSpaceOnUse"><path
         id="path4564"
         d="m 0,0 2950,0 0,430 L 0,430 0,0 z" /></clipPath><inkscape:perspective
       id="perspective4552"
       inkscape:persp3d-origin="0.5 : 0.33333333 : 1"
       inkscape:vp_z="1 : 0.5 : 1"
       inkscape:vp_y="0 : 1000 : 0"
       inkscape:vp_x="0 : 0.5 : 1"
       sodipodi:type="inkscape:persp3d" /><clipPath
       id="clipPath4657"
       clipPathUnits="userSpaceOnUse"><path
         id="path4659"
         d="m 0,0 1230,0 0,370 L 0,370 0,0 z" /></clipPath><inkscape:perspective
       id="perspective4647"
       inkscape:persp3d-origin="0.5 : 0.33333333 : 1"
       inkscape:vp_z="1 : 0.5 : 1"
       inkscape:vp_y="0 : 1000 : 0"
       inkscape:vp_x="0 : 0.5 : 1"
       sodipodi:type="inkscape:persp3d" /><clipPath
       id="clipPath6300"
       clipPathUnits="userSpaceOnUse"><path
         id="path6302"
         d="M 0,0 670,0 670,370 0,370 0,0 z" /></clipPath><inkscape:perspective
       id="perspective6290"
       inkscape:persp3d-origin="0.5 : 0.33333333 : 1"
       inkscape:vp_z="1 : 0.5 : 1"
       inkscape:vp_y="0 : 1000 : 0"
       inkscape:vp_x="0 : 0.5 : 1"
       sodipodi:type="inkscape:persp3d" /><clipPath
       id="clipPath3757"
       clipPathUnits="userSpaceOnUse"><path
         id="path3759"
         d="M 0,0 150,0 150,240 0,240 0,0 z" /></clipPath><inkscape:perspective
       id="perspective3747"
       inkscape:persp3d-origin="0.5 : 0.33333333 : 1"
       inkscape:vp_z="1 : 0.5 : 1"
       inkscape:vp_y="0 : 1000 : 0"
       inkscape:vp_x="0 : 0.5 : 1"
       sodipodi:type="inkscape:persp3d" /><clipPath
       id="clipPath3810"
       clipPathUnits="userSpaceOnUse"><path
         id="path3812"
         d="M 0,0 200,0 200,240 0,240 0,0 z" /></clipPath><inkscape:perspective
       id="perspective3800"
       inkscape:persp3d-origin="0.5 : 0.33333333 : 1"
       inkscape:vp_z="1 : 0.5 : 1"
       inkscape:vp_y="0 : 1000 : 0"
       inkscape:vp_x="0 : 0.5 : 1"
       sodipodi:type="inkscape:persp3d" /></defs><sodipodi:namedview
     pagecolor="#ffffff"
     bordercolor="#666666"
     borderopacity="1"
     objecttolerance="10"
     gridtolerance="10"
     guidetolerance="10"
     inkscape:pageopacity="0"
     inkscape:pageshadow="2"
     inkscape:window-width="1241"
     inkscape:window-height="756"
     id="namedview2839"
     showgrid="false"
     inkscape:zoom="1.4284261"
     inkscape:cx="148.45461"
     inkscape:cy="156.79577"
     inkscape:window-x="0"
     inkscape:window-y="0"
     inkscape:window-maximized="1"
     inkscape:current-layer="g2847" /><g
     id="g2847"
     inkscape:groupmode="layer"
     inkscape:label="entropy"
     transform="matrix(1.25,0,0,-1.25,-145.80826,707.77225)"><path
       style="fill:url(#linearGradient3953);fill-opacity:1;fill-rule:nonzero;stroke:#4abd1a;stroke-width:1.25;stroke-opacity:1"
       d="m 401.125,372.53125 -6,1 -5,1 -6,1 -5,1 -5,1 -6,1 -5,2 -6,2 -5,1 -6,3 -5,2 -5,2 -6,3 -5,2 -6,3 -5,3 -6,3 -5,4 -5,3 -6,4 -5,4 -6,4 -5,4 -6,4 -5,5 -5,4 -6,5 -5,5 -6,5 -5,6 -6,5 -5,6 -5,5 -6,6 -5,6 -6,7 -5,6 -6,7 -5,7 -5,6 -6,8 -5,7 -6,7 -5,8 -1,1.3125 512,0 -1,-1.3125 -5,-8 -6,-7 -5,-7 -6,-8 -5,-6 -5,-7 -6,-7 -5,-6 -6,-7 -5,-6 -6,-6 -5,-5 -5,-6 -6,-5 -5,-6 -6,-5 -5,-5 -6,-5 -5,-4 -5,-5 -6,-4 -5,-4 -6,-4 -5,-4 -6,-4 -5,-3 -5,-4 -6,-3 -5,-3 -6,-3 -5,-2 -6,-3 -5,-2 -5,-2 -6,-3 -5,-1 -6,-2 -5,-2 -6,-1 -5,-1 -5,-1 -6,-1 -5,-1 -6,-1 -32,0 z m 287.75,203.625 0,0.375 0.25,0 -0.25,-0.375 z"
       id="path2859"
       transform="matrix(0.8,0,0,-0.8,0,792)" /><path
       id="path2865"
       style="fill:none;stroke:#0000ff;stroke-width:0.5;stroke-linecap:butt;stroke-linejoin:round;stroke-miterlimit:10;stroke-opacity:1;stroke-dasharray:0.5, 4;stroke-dashoffset:0"
       d="m 116.89661,565.9678 4,-1.6" /><path
       id="path2867"
       style="fill:none;stroke:#000000;stroke-width:0.8;stroke-linecap:butt;stroke-linejoin:round;stroke-miterlimit:10;stroke-opacity:1;stroke-dasharray:0.8,1.6;stroke-dashoffset:0"
       d="m 246.49661,350.89335 0,91.9531 0,25.55785"
       sodipodi:nodetypes="ccc" /><path
       id="path2869"
       style="fill:none;stroke:#000000;stroke-width:0.8;stroke-linecap:butt;stroke-linejoin:round;stroke-miterlimit:10;stroke-opacity:1;stroke-dasharray:0.8,0.8;stroke-dashoffset:0"
       d="m 376.89661,348.68962 0,138.87818"
       sodipodi:nodetypes="cc" /><path
       id="path2871"
       style="fill:none;stroke:#f00606;stroke-width:2;stroke-linecap:butt;stroke-linejoin:round;stroke-miterlimit:10;stroke-opacity:1;stroke-dasharray:none;marker-start:none;marker-mid:none;marker-end:none"
       d="m 246.49661,468.3678 0,58.4" /><path
       style="fill:#000000"
       d="m 240.52946,524.49533 c -0.49769,0.33867 -1.50498,1.49798 -2.23841,2.57624 l -1.33352,1.96047 -0.85877,-0.90551 c -1.21683,-1.28305 -2.57363,-1.96094 -2.79102,-1.39446 -0.50596,1.31854 2.03838,3.9331 3.82749,3.9331 0.20342,0 0.8076,-0.91011 1.34262,-2.02246 0.95598,-1.98756 2.51678,-3.63907 3.09907,-3.27918 1.57156,0.97127 0.73092,10.66631 -1.23863,14.28501 l -0.73853,1.35695 -1.23163,-0.18231 c -2.85291,-0.42229 -6.44108,-2.98704 -5.32288,-3.80469 0.73824,-0.53981 -0.27389,-2.15389 -1.35065,-2.15389 -1.21911,0 -1.24784,1.33437 -0.0585,2.71719 2.24894,2.6148 3.28675,3.31023 5.83467,3.90981 1.81938,0.42813 1.63627,1.21029 -0.33536,1.43253 -3.9022,0.43983 -3.60221,6.43527 0.322,6.43527 3.23368,0 4.69269,-3.23636 2.50981,-5.56727 -0.83012,-0.88642 -0.03,-1.86188 1.3332,-1.6255 4.06173,0.70428 6.54789,4.29941 3.96398,5.73217 -0.56602,0.31385 -0.73858,0.90824 -0.27093,0.93318 0.14901,0.008 0.42722,0.31275 0.61824,0.67732 0.59213,1.1301 1.9556,0.69853 1.9556,-0.61899 0,-0.34741 -0.1524,-0.69003 -0.33867,-0.7614 -0.22937,-0.0879 -0.30709,-0.58488 -0.24083,-1.54014 0.11958,-1.72392 -0.43691,-2.88935 -1.82755,-3.82737 -0.8916,-0.60139 -1.38034,-0.79948 -3.58798,-1.45426 l -0.71186,-0.21113 0.89204,-2.30292 c 0.49062,-1.2666 1.11042,-3.47458 1.37733,-4.90662 l 0.4853,-2.60371 1.35048,1.0675 c 4.61566,3.64846 7.48774,2.99173 5.36041,-1.22571 l -0.76342,-1.51349 1.66452,0.15543 c 2.40548,0.22463 3.79201,-0.63764 2.09751,-1.30442 -1.03605,-0.40768 -5.21542,-0.64709 -5.21542,-0.29876 0,0.15047 0.35567,1.04926 0.79038,1.99731 1.66423,3.62957 1.48286,3.94592 -1.42441,2.4845 -2.59883,-1.30637 -3.62609,-2.55809 -4.01916,-4.89734 -0.55181,-3.284 -1.43603,-4.2667 -2.92654,-3.25245 z m -1.2496,20.00809 c 0.95006,1.12909 0.91908,2.24161 -0.0905,3.25123 -1.60586,1.60586 -3.93703,0.63099 -3.93703,-1.64643 0,-2.31548 2.56844,-3.33887 4.02757,-1.6048 z"
       id="path4042" /><path
       style="fill:#000000"
       d="m 372.03578,487.17106 c -0.51754,0.2974 -0.36856,0.38424 0.66653,0.38848 l 1.33306,0.005 -0.1493,3.98043 c -0.11437,3.04695 0.0216,4.33512 0.57974,5.49278 0.40097,0.8318 0.83627,3.03485 0.96733,4.89568 l 0.23829,3.38334 -1.60773,1.54358 c -0.88425,0.84896 -2.09378,2.49689 -2.68785,3.66205 -0.59407,1.16514 -1.38846,2.38592 -1.76533,2.71279 -0.89337,0.77491 -0.87288,1.65729 0.0455,1.963 0.97662,0.32507 2.1105,-0.96894 1.45204,-1.6571 -0.74596,-0.77965 4.03834,-6.98787 4.99142,-6.47698 0.6724,0.36046 0.40514,1.50962 -0.50894,2.18852 -1.94131,1.44177 -0.60142,4.13642 2.05679,4.13642 2.73607,0 3.41823,-2.78429 1.05368,-4.30065 -1.66688,-1.06896 -1.89747,-2.76492 -0.33328,-2.45124 0.5499,0.11031 2.25266,-0.031 3.78393,-0.31401 3.23816,-0.59839 3.25024,-0.59132 4.27188,2.50009 0.96542,2.92122 0.97609,2.89007 -1.09022,3.17668 -1.7382,0.24108 -1.79877,0.29707 -1.51864,1.40343 0.74342,2.9358 1.89258,5.95794 2.25861,5.93975 1.0566,-0.0526 3.98361,-0.69748 4.1809,-0.92124 0.12221,-0.13859 1.17197,-0.72793 2.33286,-1.30965 2.45568,-1.23054 2.5414,-1.62614 1.00539,-4.63877 -1.21335,-2.37975 -1.3198,-2.42655 -3.6219,-1.59223 -0.8735,0.31657 -1.74492,0.49156 -1.93649,0.38886 -0.71543,-0.38353 -1.9171,-5.62397 -1.39374,-6.07795 0.36666,-0.31805 0.27451,-0.63937 -0.35108,-1.22408 -0.46655,-0.43606 -1.06426,-1.81836 -1.32824,-3.07179 -0.26398,-1.25342 -0.58071,-2.36634 -0.70387,-2.47316 -0.60637,-0.52597 -0.62326,0.44928 -0.049,2.82591 0.87285,3.61194 0.23216,4.43984 -3.42548,4.42624 -4.16417,-0.0156 -4.76303,-2.66598 -2.13243,-9.43772 0.4941,-1.27191 1.02347,-3.646 1.17638,-5.27574 0.27466,-2.9275 0.29454,-2.96631 1.65032,-3.22461 1.17437,-0.22373 1.26077,-0.31558 0.59902,-0.63681 -1.81356,-0.88032 -2.79432,-0.0968 -3.10848,2.48322 -0.29563,2.42809 -1.95641,7.23209 -2.50017,7.23209 -0.68423,0 -1.5088,-3.52074 -1.53453,-6.55228 -0.0295,-3.46706 -0.80504,-4.29502 -2.89714,-3.0928 z m 6.64759,22.92381 c 0.69079,0.72197 0.44951,1.74853 -0.53771,2.2878 -1.53965,0.84102 -3.27339,-1.05411 -2.09299,-2.2878 0.68637,-0.71734 1.94436,-0.71734 2.6307,0 z m 14.51447,3.2339 0.94399,2.25114 -2.27704,1.16203 c -1.84984,0.94402 -4.77416,2.04357 -5.435,2.04357 -0.17591,0 -1.95211,-5.16076 -1.95211,-5.67184 0,-0.34586 5.4492,-1.8699 7.10967,-1.98845 0.42866,-0.0305 1.00338,0.75575 1.61049,2.20355 z"
       id="path4131" /><path
       style="fill:none;stroke:#1000f8;stroke-width:0.80000001;stroke-linecap:butt;stroke-linejoin:miter;stroke-miterlimit:4;stroke-opacity:1;stroke-dasharray:0.8, 0.8;stroke-dashoffset:0"
       d="M 121.37162,564.32134 549.57526,436.71099"
       id="path4270"
       inkscape:path-effect="#path-effect4272"
       inkscape:original-d="M 121.37162,564.32134 549.57526,436.71099" /><g
       inkscape:label="ink_ext_XXXXXX"
       id="g4554"
       transform="matrix(0.33139151,0,0,0.33139151,448.38784,468.32134)"><g
         transform="scale(0.1,0.1)"
         id="g4556"><g
           id="g4558"><g
             clip-path="url(#clipPath4562)"
             id="g4560"><path
               id="path4566"
               style="fill:#0000ff;fill-opacity:1;fill-rule:nonzero;stroke:none"
               d="m 269.031,309.641 c 3.219,12.918 3.938,16.519 30.16,16.519 9.34,0 12.219,0 12.219,7.192 0,3.949 -3.949,3.949 -5.031,3.949 -10.059,0 -35.91,-1.082 -45.969,-1.082 -10.422,0 -35.922,1.082 -46.332,1.082 -2.867,0 -6.828,0 -6.828,-7.192 0,-3.949 3.23,-3.949 10.059,-3.949 0.722,0 7.531,0 13.64,-0.719 6.473,-0.722 9.699,-1.082 9.699,-5.73 0,-1.441 -0.359,-2.16 -1.437,-6.832 l -21.551,-87.641 -109.551,0 21.192,84.41 c 3.23,12.922 4.308,16.524 30.168,16.524 9.34,0 12.222,0 12.222,7.187 0,3.95 -3.953,3.95 -5.031,3.95 -10.058,0 -35.922,-1.079 -45.969,-1.079 -10.421,0 -35.9215,1.079 -46.3316,1.079 -2.8711,0 -6.8282,0 -6.8282,-7.188 0,-3.949 3.2305,-3.949 10.0586,-3.949 0.7188,0 7.5313,0 13.6407,-0.723 6.4687,-0.719 9.6995,-1.078 9.6995,-5.73 0,-1.438 -0.36,-2.52 -1.4417,-6.828 L 51.3711,120.031 C 47.7812,106.012 47.0586,103.16 18.6797,103.16 c -6.4688,0 -9.69923,0 -9.69923,-7.1912 0,-3.9493 4.30863,-3.9493 5.03123,-3.9493 10.0586,0 35.5586,1.0821 45.6094,1.0821 7.5508,0 15.4492,-0.3633 22.9805,-0.3633 7.9101,0 15.8086,-0.7188 23.3394,-0.7188 2.879,0 7.188,0 7.188,7.1914 0,3.9491 -3.231,3.9491 -10.051,3.9491 -13.2968,0 -23.3592,0 -23.3592,6.449 0,2.161 0.7226,3.95 1.082,6.11 l 24.4182,98.41 109.551,0 c -15.09,-59.617 -23.34,-93.731 -24.782,-99.117 -3.59,-11.481 -10.418,-11.84 -32.687,-11.84 -5.391,0 -8.61,0 -8.61,-7.1915 0,-3.9493 4.297,-3.9493 5.02,-3.9493 10.059,0 35.559,1.0782 45.629,1.0782 7.531,0 15.441,-0.3594 22.98,-0.3594 7.891,0 15.801,-0.7188 23.34,-0.7188 2.86,0 7.168,0 7.168,7.1876 0,3.9532 -3.226,3.9532 -10.047,3.9532 -13.301,0 -23.34,0 -23.34,6.449 0,2.16 0.719,3.949 1.079,6.109 L 269,309.672" /><path
               id="path4568"
               style="fill:#0000ff;fill-opacity:1;fill-rule:nonzero;stroke:none"
               d="m 440.879,5.80859 c 0,1.08203 0,1.80079 -6.109,7.89061 -44.891,45.25 -56.372,113.1408 -56.372,168.0818 0,62.5 13.641,124.981 57.813,169.879 4.668,4.309 4.668,5.031 4.668,6.11 0,2.519 -1.438,3.589 -3.59,3.589 -3.59,0 -35.91,-24.418 -57.09,-70.031 -18.328,-39.519 -22.621,-79.367 -22.621,-109.547 0,-28.019 3.942,-71.472 23.703,-112.0505 21.547,-44.1719 52.418,-67.51956 56.02,-67.51956 2.16,0 3.59,1.07812 3.59,3.58984" /><path
               id="path4570"
               style="fill:#0000ff;fill-opacity:1;fill-rule:nonzero;stroke:none"
               d="m 623.328,246.801 c 0,1.437 -1.078,3.578 -3.59,3.578 -3.937,0 -18.308,-14.359 -24.418,-24.777 -7.89,19.41 -21.91,25.136 -33.39,25.136 -42.371,0 -86.559,-53.136 -86.559,-105.218 0,-35.2 21.199,-57.4692 47.41,-57.4692 15.449,0 29.449,8.6289 42.391,21.5512 C 561.941,97.0391 550.078,48.5508 549,45.3203 c -2.871,-10.0586 -5.73,-11.5 -25.859,-11.8594 -4.661,0 -8.25,0 -8.25,-7.1718 0,-0.3594 0,-3.9493 4.668,-3.9493 11.48,0 24.062,1.0821 35.91,1.0821 12.222,0 25.14,-1.0821 37,-1.0821 1.781,0 6.453,0 6.453,7.1914 0,3.9376 -3.594,3.9376 -9.332,3.9376 -17.25,0 -17.25,2.5195 -17.25,5.75 0,2.5195 0.719,4.6718 1.441,7.9101 L 623.34,246.82 623.328,246.801 z M 523.84,95.9492 c -21.551,0 -22.981,27.6598 -22.981,33.7498 0,17.25 10.422,56.391 16.532,71.473 11.129,26.578 29.8,41.668 44.531,41.668 23.34,0 28.379,-29.09 28.379,-31.61 0,-2.16 -19.77,-80.808 -20.84,-82.25 C 564.09,118.93 543.98,95.9492 523.852,95.9492" /><path
               id="path4572"
               style="fill:#0000ff;fill-opacity:1;fill-rule:nonzero;stroke:none"
               d="m 737.801,181.781 c 0,28.02 -3.949,71.469 -23.699,112.059 -21.551,44.172 -52.442,67.519 -56.032,67.519 -2.16,0 -3.59,-1.437 -3.59,-3.589 0,-1.079 0,-1.801 6.829,-8.27 35.191,-35.551 55.671,-92.66 55.671,-167.719 0,-61.41 -13.3,-124.6208 -57.832,-169.8708 -4.668,-4.30082 -4.668,-5.01958 -4.668,-6.08989 0,-2.16015 1.442,-3.58984 3.59,-3.58984 3.59,0 35.918,24.41793 57.11,70.03123 18.308,39.5003 22.629,79.3793 22.629,109.5273" /><path
               id="path4574"
               style="fill:#0000ff;fill-opacity:1;fill-rule:nonzero;stroke:none"
               d="m 999.891,174.609 100.199,0 c 5.03,0 11.84,0 11.84,7.172 0,7.188 -6.81,7.188 -11.84,7.188 l -100.199,0 0,100.562 c 0,5.028 0,11.84 -7.192,11.84 -7.187,0 -7.187,-6.812 -7.187,-11.84 l 0,-100.562 -100.551,0 c -5.031,0 -11.859,0 -11.859,-7.188 0,-7.172 6.828,-7.172 11.859,-7.172 l 100.551,0 0,-100.5582 c 0,-5.0313 0,-11.8594 7.187,-11.8594 7.192,0 7.192,6.8281 7.192,11.8594 l 0,100.5582" /><path
               id="path4576"
               style="fill:#0000ff;fill-opacity:1;fill-rule:nonzero;stroke:none"
               d="m 1414.95,403.23 c 0,9.692 -8.27,19.032 -19.03,19.032 -12.22,0 -19.39,-10.063 -19.39,-19.032 0,-9.699 8.25,-19.031 19.03,-19.031 12.2,0 19.39,10.051 19.39,19.031" /><path
               id="path4578"
               style="fill:#0000ff;fill-opacity:1;fill-rule:nonzero;stroke:none"
               d="m 1486.03,309.641 c 3.22,12.918 3.94,16.519 30.16,16.519 9.34,0 12.22,0 12.22,7.192 0,3.949 -3.95,3.949 -5.03,3.949 -10.06,0 -35.91,-1.082 -45.97,-1.082 -10.42,0 -35.92,1.082 -46.33,1.082 -2.87,0 -6.83,0 -6.83,-7.192 0,-3.949 3.23,-3.949 10.06,-3.949 0.72,0 7.53,0 13.64,-0.719 6.47,-0.722 9.7,-1.082 9.7,-5.73 0,-1.441 -0.36,-2.16 -1.44,-6.832 l -21.55,-87.641 -109.55,0 21.19,84.41 c 3.23,12.922 4.31,16.524 30.17,16.524 9.34,0 12.22,0 12.22,7.187 0,3.95 -3.95,3.95 -5.03,3.95 -10.06,0 -35.92,-1.079 -45.97,-1.079 -10.42,0 -35.92,1.079 -46.33,1.079 -2.87,0 -6.83,0 -6.83,-7.188 0,-3.949 3.23,-3.949 10.06,-3.949 0.72,0 7.53,0 13.64,-0.723 6.47,-0.719 9.7,-1.078 9.7,-5.73 0,-1.438 -0.36,-2.52 -1.44,-6.828 l -48.12,-192.86 c -3.59,-14.019 -4.31,-16.871 -32.69,-16.871 -6.47,0 -9.7,0 -9.7,-7.1912 0,-3.9493 4.31,-3.9493 5.03,-3.9493 10.06,0 35.56,1.0821 45.61,1.0821 7.55,0 15.45,-0.3633 22.98,-0.3633 7.91,0 15.81,-0.7188 23.34,-0.7188 2.88,0 7.19,0 7.19,7.1914 0,3.9491 -3.23,3.9491 -10.05,3.9491 -13.3,0 -23.36,0 -23.36,6.449 0,2.161 0.72,3.95 1.08,6.11 l 24.42,98.41 109.55,0 c -15.09,-59.617 -23.34,-93.731 -24.78,-99.117 -3.59,-11.481 -10.42,-11.84 -32.69,-11.84 -5.39,0 -8.61,0 -8.61,-7.1915 0,-3.9493 4.3,-3.9493 5.02,-3.9493 10.06,0 35.56,1.0782 45.63,1.0782 7.53,0 15.44,-0.3594 22.98,-0.3594 7.89,0 15.8,-0.7188 23.34,-0.7188 2.86,0 7.17,0 7.17,7.1876 0,3.9532 -3.23,3.9532 -10.05,3.9532 -13.3,0 -23.34,0 -23.34,6.449 0,2.16 0.72,3.949 1.08,6.109 L 1486,309.672" /><path
               id="path4580"
               style="fill:#0000ff;fill-opacity:1;fill-rule:nonzero;stroke:none"
               d="m 1657.88,5.80859 c 0,1.08203 0,1.80079 -6.11,7.89061 -44.89,45.25 -56.37,113.1408 -56.37,168.0818 0,62.5 13.64,124.981 57.81,169.879 4.67,4.309 4.67,5.031 4.67,6.11 0,2.519 -1.44,3.589 -3.59,3.589 -3.59,0 -35.91,-24.418 -57.09,-70.031 -18.33,-39.519 -22.62,-79.367 -22.62,-109.547 0,-28.019 3.94,-71.472 23.7,-112.0505 21.55,-44.1719 52.42,-67.51956 56.02,-67.51956 2.16,0 3.59,1.07812 3.59,3.58984" /><path
               id="path4582"
               style="fill:#0000ff;fill-opacity:1;fill-rule:nonzero;stroke:none"
               d="m 1841.33,246.801 c 0,1.437 -1.08,3.578 -3.59,3.578 -3.94,0 -18.31,-14.359 -24.42,-24.777 -7.89,19.41 -21.91,25.136 -33.39,25.136 -42.37,0 -86.56,-53.136 -86.56,-105.218 0,-35.2 21.2,-57.4692 47.41,-57.4692 15.45,0 29.45,8.6289 42.39,21.5512 -3.23,-12.5629 -15.09,-61.0512 -16.17,-64.2817 -2.87,-10.0586 -5.73,-11.5 -25.86,-11.8594 -4.66,0 -8.25,0 -8.25,-7.1718 0,-0.3594 0,-3.9493 4.67,-3.9493 11.48,0 24.06,1.0821 35.91,1.0821 12.22,0 25.14,-1.0821 37,-1.0821 1.78,0 6.45,0 6.45,7.1914 0,3.9376 -3.59,3.9376 -9.33,3.9376 -17.25,0 -17.25,2.5195 -17.25,5.75 0,2.5195 0.72,4.6718 1.44,7.9101 l 49.56,199.6911 -0.01,-0.019 z M 1741.84,95.9492 c -21.55,0 -22.98,27.6598 -22.98,33.7498 0,17.25 10.42,56.391 16.53,71.473 11.13,26.578 29.8,41.668 44.53,41.668 23.34,0 28.38,-29.09 28.38,-31.61 0,-2.16 -19.77,-80.808 -20.84,-82.25 -5.37,-10.05 -25.48,-33.0308 -45.61,-33.0308" /><path
               id="path4584"
               style="fill:#0000ff;fill-opacity:1;fill-rule:nonzero;stroke:none"
               d="m 1955.8,181.781 c 0,28.02 -3.95,71.469 -23.7,112.059 -21.55,44.172 -52.44,67.519 -56.03,67.519 -2.16,0 -3.59,-1.437 -3.59,-3.589 0,-1.079 0,-1.801 6.83,-8.27 35.19,-35.551 55.67,-92.66 55.67,-167.719 0,-61.41 -13.3,-124.6208 -57.83,-169.8708 -4.67,-4.30082 -4.67,-5.01958 -4.67,-6.08989 0,-2.16015 1.44,-3.58984 3.59,-3.58984 3.59,0 35.92,24.41793 57.11,70.03123 18.31,39.5003 22.63,79.3793 22.63,109.5273" /><path
               id="path4586"
               style="fill:#0000ff;fill-opacity:1;fill-rule:nonzero;stroke:none"
               d="m 2109.88,5.80859 c 0,1.08203 0,1.80079 -6.11,7.89061 -44.89,45.25 -56.37,113.1408 -56.37,168.0818 0,62.5 13.64,124.981 57.81,169.879 4.67,4.309 4.67,5.031 4.67,6.11 0,2.519 -1.44,3.589 -3.59,3.589 -3.59,0 -35.91,-24.418 -57.09,-70.031 -18.33,-39.519 -22.62,-79.367 -22.62,-109.547 0,-28.019 3.94,-71.472 23.7,-112.0505 21.55,-44.1719 52.42,-67.51956 56.02,-67.51956 2.16,0 3.59,1.07812 3.59,3.58984" /><path
               id="path4588"
               style="fill:#0000ff;fill-opacity:1;fill-rule:nonzero;stroke:none"
               d="m 2199.95,181.781 c 0,10.418 -8.62,19.028 -19.03,19.028 -10.42,0 -19.03,-8.61 -19.03,-19.028 0,-10.41 8.61,-19.031 19.03,-19.031 10.41,0 19.03,8.629 19.03,19.031" /><path
               id="path4590"
               style="fill:#0000ff;fill-opacity:1;fill-rule:nonzero;stroke:none"
               d="m 2546.67,174.609 c 6.11,0 12.58,0 12.58,7.172 0,7.188 -6.47,7.188 -12.58,7.188 l -194.3,0 c -6.11,0 -12.56,0 -12.56,-7.188 0,-7.172 6.45,-7.172 12.56,-7.172 l 194.3,0" /><path
               id="path4592"
               style="fill:#0000ff;fill-opacity:1;fill-rule:nonzero;stroke:none"
               d="m 2831.33,246.801 c 0,1.437 -1.08,3.578 -3.59,3.578 -3.94,0 -18.31,-14.359 -24.42,-24.777 -7.89,19.41 -21.91,25.136 -33.39,25.136 -42.37,0 -86.56,-53.136 -86.56,-105.218 0,-35.2 21.2,-57.4692 47.41,-57.4692 15.45,0 29.45,8.6289 42.39,21.5512 -3.23,-12.5629 -15.09,-61.0512 -16.17,-64.2817 -2.87,-10.0586 -5.73,-11.5 -25.86,-11.8594 -4.66,0 -8.25,0 -8.25,-7.1718 0,-0.3594 0,-3.9493 4.67,-3.9493 11.48,0 24.06,1.0821 35.91,1.0821 12.22,0 25.14,-1.0821 37,-1.0821 1.78,0 6.45,0 6.45,7.1914 0,3.9376 -3.59,3.9376 -9.33,3.9376 -17.25,0 -17.25,2.5195 -17.25,5.75 0,2.5195 0.72,4.6718 1.44,7.9101 l 49.56,199.6911 -0.01,-0.019 z M 2731.84,95.9492 c -21.55,0 -22.98,27.6598 -22.98,33.7498 0,17.25 10.42,56.391 16.53,71.473 11.13,26.578 29.8,41.668 44.53,41.668 23.34,0 28.38,-29.09 28.38,-31.61 0,-2.16 -19.77,-80.808 -20.84,-82.25 -5.37,-10.05 -25.48,-33.0308 -45.61,-33.0308" /><path
               id="path4594"
               style="fill:#0000ff;fill-opacity:1;fill-rule:nonzero;stroke:none"
               d="m 2945.8,181.781 c 0,28.02 -3.95,71.469 -23.7,112.059 -21.55,44.172 -52.44,67.519 -56.03,67.519 -2.16,0 -3.59,-1.437 -3.59,-3.589 0,-1.079 0,-1.801 6.83,-8.27 35.19,-35.551 55.67,-92.66 55.67,-167.719 0,-61.41 -13.3,-124.6208 -57.83,-169.8708 -4.67,-4.30082 -4.67,-5.01958 -4.67,-6.08989 0,-2.16015 1.44,-3.58984 3.59,-3.58984 3.59,0 35.92,24.41793 57.11,70.03123 18.31,39.5003 22.63,79.3793 22.63,109.5273" /></g></g></g></g><g
       inkscape:label="ink_ext_XXXXXX"
       id="g4649"
       transform="matrix(0.39365963,0,0,0.39365963,194.97763,491.28829)"><g
         transform="scale(0.1,0.1)"
         id="g4651"><g
           id="g4653"><g
             clip-path="url(#clipPath4657)"
             id="g4655"><path
               id="path4661"
               style="fill:#ff0000;fill-opacity:1;fill-rule:nonzero;stroke:none"
               d="m 174.309,339.301 c 0,0.359 0,3.949 -4.668,3.949 -5.371,0 -39.5,-3.23 -45.61,-3.949 -2.859,-0.36 -5.019,-2.16 -5.019,-6.832 0,-4.309 3.218,-4.309 8.609,-4.309 17.25,0 17.949,-2.519 17.949,-6.09 l -1.058,-7.191 -21.563,-85.117 c -6.449,13.297 -16.871,22.976 -33.0271,22.976 -42.0235,0 -86.56252,-52.777 -86.56252,-105.218 0,-33.77 19.76952,-57.4692 47.76952,-57.4692 7.1914,0 25.1406,1.4375 46.6914,26.9372 2.8787,-15.078 15.4497,-26.9372 32.6917,-26.9372 12.578,0 20.828,8.2695 26.578,19.7502 6.109,12.937 10.781,34.84 10.781,35.558 0,3.59 -3.23,3.59 -4.312,3.59 -3.59,0 -3.95,-1.437 -5.028,-6.469 -6.109,-23.339 -12.582,-44.5308 -27.301,-44.5308 -9.699,0 -10.769,9.3318 -10.769,16.5198 0,8.633 0.719,11.14 2.141,17.23 l 51.718,207.59 -0.011,0.012 z M 99.6094,136.73 c -1.8008,-6.468 -1.8008,-7.171 -7.168,-13.281 -15.8125,-19.75 -30.5312,-25.4998 -40.5898,-25.4998 -17.9532,0 -22.9805,19.7498 -22.9805,33.7498 0,17.973 11.5,62.141 19.7695,78.66 11.1289,21.192 27.2813,34.481 41.6602,34.481 23.3402,0 28.3792,-29.449 28.3792,-31.61 0,-2.16 -0.719,-4.308 -1.078,-6.109 L 99.6289,136.73" /><path
               id="path4663"
               style="fill:#ff0000;fill-opacity:1;fill-rule:nonzero;stroke:none"
               d="m 385.781,190.879 c 2.27,9.281 2.77,11.281 21.309,11.281 5.519,0 8.519,0 8.519,5.52 0,1 -0.75,3.519 -4.019,3.519 -7.27,0 -25.559,-1 -32.828,-1 -4.274,0 -13.032,0 -17.301,0.25 -5.02,0.25 -11.031,0.75 -15.781,0.75 -1.52,0 -5.27,0 -5.27,-5.519 0,-3.52 3,-3.52 8.02,-3.52 0.25,0 5.019,0 9.531,-0.5 5.269,-0.5 5.769,-1 5.769,-3.5 0,-0.25 0,-1.769 -1.019,-5.519 l -14.781,-59.161 -83.969,0 14.551,58.161 c 2.25,8.519 2.75,10.519 22.047,10.519 4.269,0 7.531,0 7.531,5.52 0,1 -0.77,3.519 -4.02,3.519 -7.269,0 -25.558,-1 -32.832,-1 -4.269,0 -13.047,0 -17.297,0.25 -5.019,0.25 -11.031,0.75 -15.8,0.75 -1.5,0 -5.27,0 -5.27,-5.519 0,-3.52 3.02,-3.52 8.027,-3.52 0.25,0 5.024,0 9.524,-0.5 5.269,-0.5 5.769,-1 5.769,-3.5 0,-0.5 0,-1.769 -1,-5.519 L 221.859,59.5508 c -2.019,-8.5196 -2.519,-10.5313 -22.058,-10.5313 -4.27,0 -7.52,0 -7.52,-5.25 0,-2.5195 1.75,-3.7695 4,-3.7695 7.278,0 25.328,1 32.59,1 4.25,0 13.027,0 17.301,-0.25 5,-0.25 11.269,-0.75 16.027,-0.75 1.25,0 5.27,0 5.27,5.2695 0,3.75 -2.5,3.75 -8.27,3.75 -4.019,0 -5.019,0 -9.527,0.5196 -5.524,0.75 -5.524,1.25 -5.524,3.75 0,0.25 0,1.75 1,5.5195 l 16.551,65.6714 83.973,0 -16.301,-64.9214 c -2,-8.5195 -2.5,-10.5274 -22.062,-10.5274 -4.25,0 -7.52,0 -7.52,-5.25 0,-2.5195 1.77,-3.7695 4.02,-3.7695 7.269,0 25.312,1 32.582,1 4.269,0 13.031,0 17.3,-0.25 5.02,-0.25 11.278,-0.75 16.047,-0.75 1.25,0 5.25,0 5.25,5.2695 0,3.75 -2.5,3.75 -8.269,3.75 -4.02,0 -5.02,0 -9.52,0.5196 -5.519,0.75 -5.519,1.25 -5.519,3.75 0,1.5 0.75,4.0195 1,5.5195 l 33.082,132.0777" /><path
               id="path4665"
               style="fill:#ff0000;fill-opacity:1;fill-rule:nonzero;stroke:none"
               d="m 565.879,7.80859 c 0,1.08203 0,1.80079 -6.109,7.89061 -44.891,45.25 -56.372,113.1408 -56.372,168.0818 0,62.5 13.641,124.981 57.813,169.879 4.668,4.309 4.668,5.031 4.668,6.11 0,2.519 -1.438,3.589 -3.59,3.589 -3.59,0 -35.91,-24.418 -57.09,-70.031 -18.328,-39.519 -22.621,-79.367 -22.621,-109.547 0,-28.019 3.942,-71.472 23.703,-112.0505 21.547,-44.1719 52.418,-67.51956 56.02,-67.51956 2.16,0 3.59,1.07812 3.59,3.58984" /><path
               id="path4667"
               style="fill:#ff0000;fill-opacity:1;fill-rule:nonzero;stroke:none"
               d="m 603.16,50.1914 c -2.871,-12.2226 -3.59,-14.7305 -19.39,-14.7305 -4.309,0 -8.27,0 -8.27,-6.8125 0,-2.8672 1.801,-4.3086 4.672,-4.3086 9.699,0 20.109,1.0821 30.168,1.0821 11.859,0 24.058,-1.0821 35.558,-1.0821 1.782,0 6.454,0 6.454,7.1914 0,3.9376 -3.59,3.9376 -8.614,3.9376 -17.968,0 -17.968,2.5195 -17.968,5.75 0,4.3124 15.089,62.8592 17.609,71.8322 4.66,-10.41 14.723,-22.9807 33.031,-22.9807 41.668,0 86.559,52.4417 86.559,105.2307 0,33.75 -20.469,57.449 -47.77,57.449 -17.969,0 -35.199,-12.922 -47.051,-26.922 -3.589,19.391 -19.046,26.922 -32.328,26.922 -16.519,0 -23.34,-14 -26.582,-20.469 -6.468,-12.203 -11.117,-33.75 -11.117,-34.832 0,-3.59 3.578,-3.59 4.301,-3.59 3.59,0 3.949,0.36 6.109,8.27 6.11,25.48 13.297,42.73 26.219,42.73 6.109,0 11.141,-2.871 11.141,-16.531 0,-8.25 -1.082,-12.199 -2.52,-18.308 l -40.23,-159.8091 0.019,-0.0195 z m 63.219,155.8596 c 2.519,9.699 12.199,19.769 18.672,25.14 12.558,11.137 22.98,13.661 29.09,13.661 14.359,0 22.98,-12.582 22.98,-33.774 0,-21.187 -11.859,-62.476 -18.312,-76.137 -12.219,-25.14 -29.45,-36.9801 -42.75,-36.9801 -23.7,0 -28.368,29.8091 -28.368,31.9691 0,0.699 0,1.422 1.079,5.73 l 17.609,70.391" /><path
               id="path4669"
               style="fill:#ff0000;fill-opacity:1;fill-rule:nonzero;stroke:none"
               d="m 828.77,351.141 c 0,5.75 0,12.218 -7.168,12.218 -7.192,0 -7.192,-7.91 -7.192,-13.3 l 0,-332.559 c 0,-5.75 0,-13.28125 7.192,-13.28125 7.168,0 7.168,6.45315 7.168,12.20315 l 0,334.7191 z m 70.039,-1.082 c 0,5.75 0,13.3 -7.188,13.3 -7.191,0 -7.191,-6.468 -7.191,-12.218 l 0,-334.7191 c 0,-5.75 0,-12.20315 7.191,-12.20315 7.188,0 7.188,7.89065 7.188,13.28125 l 0,332.559" /><path
               id="path4671"
               style="fill:#ff0000;fill-opacity:1;fill-rule:nonzero;stroke:none"
               d="m 1109.33,248.801 c 0,1.437 -1.08,3.578 -3.59,3.578 -3.94,0 -18.31,-14.359 -24.42,-24.777 -7.89,19.41 -21.91,25.136 -33.39,25.136 -42.37,0 -86.559,-53.136 -86.559,-105.218 0,-35.2 21.199,-57.4692 47.409,-57.4692 15.45,0 29.45,8.6289 42.39,21.5512 -3.23,-12.5629 -15.09,-61.0512 -16.17,-64.2817 -2.87,-10.0586 -5.73,-11.5 -25.86,-11.8594 -4.66,0 -8.25,0 -8.25,-7.1718 0,-0.3594 0,-3.9493 4.67,-3.9493 11.48,0 24.06,1.0821 35.91,1.0821 12.22,0 25.14,-1.0821 37,-1.0821 1.78,0 6.45,0 6.45,7.1914 0,3.9376 -3.59,3.9376 -9.33,3.9376 -17.25,0 -17.25,2.5195 -17.25,5.75 0,2.5195 0.72,4.6718 1.44,7.9101 l 49.56,199.6911 -0.01,-0.019 z M 1009.84,97.9492 c -21.551,0 -22.981,27.6598 -22.981,33.7498 0,17.25 10.422,56.391 16.531,71.473 11.13,26.578 29.8,41.668 44.53,41.668 23.34,0 28.38,-29.09 28.38,-31.61 0,-2.16 -19.77,-80.808 -20.84,-82.25 -5.37,-10.05 -25.48,-33.0308 -45.61,-33.0308" /><path
               id="path4673"
               style="fill:#ff0000;fill-opacity:1;fill-rule:nonzero;stroke:none"
               d="m 1223.8,183.781 c 0,28.02 -3.95,71.469 -23.7,112.059 -21.55,44.172 -52.44,67.519 -56.03,67.519 -2.16,0 -3.59,-1.437 -3.59,-3.589 0,-1.079 0,-1.801 6.83,-8.27 35.19,-35.551 55.67,-92.66 55.67,-167.719 0,-61.41 -13.3,-124.6208 -57.83,-169.8708 -4.67,-4.30082 -4.67,-5.01958 -4.67,-6.08989 0,-2.16015 1.44,-3.58984 3.59,-3.58984 3.59,0 35.92,24.41793 57.11,70.03123 18.31,39.5003 22.63,79.3793 22.63,109.5273" /></g></g></g></g><g
       inkscape:label="ink_ext_XXXXXX"
       id="g6292"
       transform="matrix(0.37623836,0,0,0.37623836,515.42809,379.34986)"><g
         transform="scale(0.1,0.1)"
         id="g6294"><g
           id="g6296"><g
             clip-path="url(#clipPath6300)"
             id="g6298"><path
               id="path6304"
               style="fill:#00a650;fill-opacity:1;fill-rule:nonzero;stroke:none"
               d="m 267.031,311.641 c 3.219,12.918 3.938,16.519 30.16,16.519 9.34,0 12.219,0 12.219,7.192 0,3.949 -3.949,3.949 -5.031,3.949 -10.059,0 -35.91,-1.082 -45.969,-1.082 -10.422,0 -35.922,1.082 -46.332,1.082 -2.867,0 -6.828,0 -6.828,-7.192 0,-3.949 3.23,-3.949 10.059,-3.949 0.722,0 7.531,0 13.64,-0.719 6.473,-0.722 9.699,-1.082 9.699,-5.73 0,-1.441 -0.359,-2.16 -1.437,-6.832 l -21.551,-87.641 -109.551,0 21.192,84.41 c 3.23,12.922 4.308,16.524 30.168,16.524 9.34,0 12.222,0 12.222,7.187 0,3.95 -3.953,3.95 -5.031,3.95 -10.058,0 -35.922,-1.079 -45.969,-1.079 -10.421,0 -35.9215,1.079 -46.3316,1.079 -2.8711,0 -6.8282,0 -6.8282,-7.188 0,-3.949 3.2305,-3.949 10.0586,-3.949 0.7188,0 7.5313,0 13.6407,-0.723 6.4687,-0.719 9.6992,-1.078 9.6992,-5.73 0,-1.438 -0.3594,-2.52 -1.4414,-6.828 L 49.3711,122.031 C 45.7812,108.012 45.0586,105.16 16.6797,105.16 c -6.4688,0 -9.69923,0 -9.69923,-7.1912 0,-3.9493 4.30863,-3.9493 5.03123,-3.9493 10.0586,0 35.5586,1.0821 45.6094,1.0821 7.5508,0 15.4492,-0.3633 22.9805,-0.3633 7.9101,0 15.8086,-0.7188 23.3394,-0.7188 2.879,0 7.188,0 7.188,7.1915 0,3.949 -3.231,3.949 -10.051,3.949 -13.2968,0 -23.3592,0 -23.3592,6.449 0,2.161 0.7226,3.95 1.082,6.11 l 24.4182,98.41 109.551,0 c -15.09,-59.617 -23.34,-93.731 -24.782,-99.117 -3.59,-11.481 -10.418,-11.84 -32.687,-11.84 -5.391,0 -8.61,0 -8.61,-7.1915 0,-3.9493 4.297,-3.9493 5.02,-3.9493 10.059,0 35.559,1.0782 45.629,1.0782 7.531,0 15.441,-0.3594 22.98,-0.3594 7.891,0 15.801,-0.7188 23.34,-0.7188 2.86,0 7.168,0 7.168,7.1878 0,3.953 -3.226,3.953 -10.047,3.953 -13.301,0 -23.34,0 -23.34,6.449 0,2.16 0.719,3.949 1.079,6.109 L 267,311.672" /><path
               id="path6306"
               style="fill:#00a650;fill-opacity:1;fill-rule:nonzero;stroke:none"
               d="m 438.879,7.80859 c 0,1.08203 0,1.80079 -6.109,7.89061 -44.891,45.25 -56.372,113.1408 -56.372,168.0818 0,62.5 13.641,124.981 57.813,169.879 4.668,4.309 4.668,5.031 4.668,6.11 0,2.519 -1.438,3.589 -3.59,3.589 -3.59,0 -35.91,-24.418 -57.09,-70.031 -18.328,-39.519 -22.621,-79.367 -22.621,-109.547 0,-28.019 3.942,-71.472 23.703,-112.0505 21.547,-44.1719 52.418,-67.51956 56.02,-67.51956 2.16,0 3.59,1.07812 3.59,3.58984" /><path
               id="path6308"
               style="fill:#00a650;fill-opacity:1;fill-rule:nonzero;stroke:none"
               d="m 528.949,183.781 c 0,10.418 -8.621,19.028 -19.027,19.028 -10.422,0 -19.031,-8.61 -19.031,-19.028 0,-10.41 8.609,-19.031 19.031,-19.031 10.406,0 19.027,8.629 19.027,19.031" /><path
               id="path6310"
               style="fill:#00a650;fill-opacity:1;fill-rule:nonzero;stroke:none"
               d="m 662.801,183.781 c 0,28.02 -3.949,71.469 -23.699,112.059 -21.551,44.172 -52.442,67.519 -56.032,67.519 -2.16,0 -3.59,-1.437 -3.59,-3.589 0,-1.079 0,-1.801 6.829,-8.27 35.191,-35.551 55.671,-92.66 55.671,-167.719 0,-61.41 -13.3,-124.6208 -57.832,-169.8708 -4.668,-4.30082 -4.668,-5.01958 -4.668,-6.08989 0,-2.16015 1.442,-3.58984 3.59,-3.58984 3.59,0 35.918,24.41793 57.11,70.03123 18.308,39.5003 22.629,79.3793 22.629,109.5273" /></g></g></g></g><g
       transform="matrix(1.1751263,0,0,1.1751263,379.06611,335.85613)"
       inkscape:label="ink_ext_XXXXXX"
       id="g3749"><g
         transform="scale(0.1,0.1)"
         id="g3751"><g
           id="g3753"><g
             clip-path="url(#clipPath3757)"
             id="g3755"><path
               id="path3761"
               style="fill:#000000;fill-opacity:1;fill-rule:nonzero;stroke:none"
               d="m 65.326267,233.03621 c 0,0.62115 -0.465972,1.54661 -1.551797,1.54661 -1.70179,0 -7.913733,-6.20676 -10.554813,-10.70999 -3.410495,8.39008 -9.47063,10.86517 -14.433138,10.86517 -18.315138,0 -37.415429,-22.96832 -37.415429,-45.48105 0,-15.21526 9.163473,-24.84137 20.493277,-24.84137 6.678044,0 12.72962,3.72988 18.32361,9.31545 -1.396401,-5.43021 -6.524377,-26.38954 -6.990391,-27.78594 -1.241049,-4.34789 -2.47704,-4.97094 -11.177866,-5.12629 -2.014354,0 -3.566107,0 -3.566107,-3.10005 0,-0.15536 0,-1.70709 2.017768,-1.70709 4.962508,0 10.401146,0.46771 15.522379,0.46771 5.283285,0 10.866987,-0.46771 15.993537,-0.46771 0.769847,0 2.789344,0 2.789344,3.1085 0,1.70205 -1.553526,1.70205 -4.033808,1.70205 -7.456492,0 -7.456492,1.08907 -7.456492,2.48547 0,1.08907 0.310705,2.01941 0.623053,3.41918 l 21.42206,86.31756 -0.0052,-0.008 z M 22.321953,167.8297 c -9.315407,0 -9.933403,11.9561 -9.933403,14.58854 0,7.4564 4.50488,24.37531 7.145701,30.89459 4.810527,11.48848 12.881557,18.01122 19.248896,18.01122 10.088885,0 12.26702,-12.57431 12.26702,-13.6636 0,-0.93367 -8.545603,-34.92969 -9.008246,-35.55301 C 39.720234,177.76328 31.02788,167.8297 22.327053,167.8297" /></g></g></g></g><g
       transform="matrix(0.47832096,0,0,0.47832096,248.59262,351.25306)"
       inkscape:label="ink_ext_XXXXXX"
       id="g3802"><g
         transform="scale(0.1,0.1)"
         id="g3804"><g
           id="g3806"><g
             clip-path="url(#clipPath3810)"
             id="g3808"><path
               id="path3814"
               style="fill:#000000;fill-opacity:1;fill-rule:nonzero;stroke:none"
               d="M 36.1602,32.1914 C 33.2891,19.9688 32.5703,17.4609 16.7695,17.4609 c -4.3086,0 -8.2695,0 -8.2695,-6.8125 0,-2.86715 1.8008,-4.30856 4.6719,-4.30856 9.6992,0 20.1093,1.08204 30.1679,1.08204 11.8594,0 24.0586,-1.08204 35.5586,-1.08204 1.7813,0 6.4532,0 6.4532,7.19136 0,3.9376 -3.5899,3.9376 -8.6133,3.9376 -17.9688,0 -17.9688,2.5195 -17.9688,5.75 0,4.3124 15.0899,62.8593 17.6094,71.832 4.6602,-10.4102 14.7227,-22.9805 33.0311,-22.9805 41.668,0 86.559,52.4417 86.559,105.2307 0,33.75 -20.469,57.449 -47.77,57.449 -17.969,0 -35.199,-12.922 -47.051,-26.922 -3.5894,19.391 -19.0464,26.922 -32.3277,26.922 -16.5195,0 -23.3398,-14 -26.582,-20.469 -6.4688,-12.203 -11.1172,-33.75 -11.1172,-34.832 0,-3.59 3.5781,-3.59 4.3008,-3.59 3.5898,0 3.9492,0.36 6.1093,8.27 6.1094,25.48 13.2969,42.73 26.2188,42.73 6.1094,0 11.1406,-2.871 11.1406,-16.531 0,-8.25 -1.082,-12.199 -2.5195,-18.308 L 36.1406,32.2109 36.1602,32.1914 z M 99.3789,188.051 c 2.5191,9.699 12.1991,19.769 18.6721,25.14 12.558,11.137 22.98,13.661 29.09,13.661 14.359,0 22.98,-12.582 22.98,-33.774 0,-21.187 -11.859,-62.476 -18.312,-76.137 -12.219,-25.1402 -29.45,-36.9801 -42.75,-36.9801 -23.6996,0 -28.3676,29.8091 -28.3676,31.9691 0,0.699 0,1.422 1.0781,5.73 l 17.6094,70.391" /></g></g></g></g></g></svg>